<svg xmlns="http://www.w3.org/2000/svg" width="1200" height="630" viewBox="0 0 1200 630">
  <defs>
    <radialGradient id="glow" cx="50%" cy="45%" r="55%">
      <stop offset="0%" stop-color="#c6880e" stop-opacity="0.15"/>
      <stop offset="60%" stop-color="#c6880e" stop-opacity="0.03"/>
      <stop offset="100%" stop-color="#1a1613" stop-opacity="0"/>
    </radialGradient>
    <linearGradient id="amber-line" x1="0%" y1="0%" x2="100%" y2="0%">
      <stop offset="0%" stop-color="#c6880e" stop-opacity="0"/>
      <stop offset="50%" stop-color="#c6880e" stop-opacity="0.5"/>
      <stop offset="100%" stop-color="#c6880e" stop-opacity="0"/>
    </linearGradient>
  </defs>

  <!-- Background -->
  <rect width="1200" height="630" fill="#1a1613"/>
  <rect width="1200" height="630" fill="url(#glow)"/>

  <!-- Citation network nodes (decorative) -->
  <!-- Connecting arcs -->
  <path d="M820 200 Q900 280 950 250" stroke="#c6880e" stroke-opacity="0.2" stroke-width="1.5" fill="none"/>
  <path d="M820 200 Q860 340 980 350" stroke="#c6880e" stroke-opacity="0.15" stroke-width="1" fill="none"/>
  <path d="M950 250 Q1020 300 980 350" stroke="#c6880e" stroke-opacity="0.18" stroke-width="1" fill="none"/>
  <path d="M820 200 Q780 150 800 100" stroke="#c6880e" stroke-opacity="0.12" stroke-width="1" fill="none"/>
  <path d="M950 250 Q1050 200 1080 240" stroke="#c6880e" stroke-opacity="0.12" stroke-width="1" fill="none"/>
  <path d="M870 270 Q900 230 950 250" stroke="#c6880e" stroke-opacity="0.25" stroke-width="1.5" fill="none"/>

  <!-- Outer nodes -->
  <circle cx="800" cy="100" r="5" fill="#c6880e" opacity="0.3"/>
  <circle cx="1080" cy="240" r="6" fill="#c6880e" opacity="0.25"/>
  <circle cx="980" cy="350" r="7" fill="#c6880e" opacity="0.28"/>
  <circle cx="750" cy="320" r="4" fill="#c6880e" opacity="0.18"/>

  <!-- Secondary nodes -->
  <circle cx="820" cy="200" r="12" fill="#c6880e" opacity="0.08"/>
  <circle cx="820" cy="200" r="5" fill="#c6880e" opacity="0.45"/>

  <circle cx="870" cy="270" r="10" fill="#c6880e" opacity="0.06"/>
  <circle cx="870" cy="270" r="4" fill="#c6880e" opacity="0.4"/>

  <!-- Primary node -->
  <circle cx="950" cy="250" r="32" fill="#c6880e" opacity="0.05"/>
  <circle cx="950" cy="250" r="20" fill="#c6880e" opacity="0.1"/>
  <circle cx="950" cy="250" r="11" fill="#c6880e" opacity="0.2"/>
  <circle cx="950" cy="250" r="6" fill="#c6880e" opacity="0.8"/>

  <!-- Platform labels near nodes -->
  <text x="778" y="94" fill="#e8d5b5" opacity="0.4" font-size="11" font-family="system-ui, sans-serif">ChatGPT</text>
  <text x="1060" y="235" fill="#e8d5b5" opacity="0.35" font-size="11" font-family="system-ui, sans-serif">Perplexity</text>
  <text x="960" y="372" fill="#e8d5b5" opacity="0.35" font-size="11" font-family="system-ui, sans-serif">Gemini</text>
  <text x="793" y="220" fill="#e8d5b5" opacity="0.35" font-size="10" font-family="system-ui, sans-serif">Claude</text>
  <text x="843" y="290" fill="#e8d5b5" opacity="0.32" font-size="9" font-family="system-ui, sans-serif">AI Overview</text>
  <text x="925" y="280" fill="#c6880e" opacity="0.85" font-size="12" font-weight="600" font-family="system-ui, sans-serif">Your Brand</text>

  <!-- Amber divider -->
  <rect x="80" y="400" width="440" height="1" fill="url(#amber-line)"/>

  <!-- Logo -->
  <text x="80" y="80" fill="#e8d5b5" font-size="26" font-weight="400" font-family="Georgia, serif">Vyzora</text>
  <text x="175" y="80" fill="#c6880e" font-size="26" font-weight="400" font-family="Georgia, serif">.</text>

  <!-- Headline -->
  <text x="80" y="200" fill="#e8d5b5" font-size="48" font-weight="400" font-family="Georgia, serif">Your customers</text>
  <text x="80" y="260" fill="#e8d5b5" font-size="48" font-weight="400" font-family="Georgia, serif">ask AI what to buy.</text>
  <text x="80" y="340" fill="#c6880e" font-size="48" font-style="italic" font-weight="400" font-family="Georgia, serif">Are you the answer?</text>

  <!-- Sub-line -->
  <text x="80" y="440" fill="#e8d5b5" opacity="0.5" font-size="16" font-family="system-ui, sans-serif">Free AI Visibility Audit — delivered in 48 hours</text>

  <!-- Stats -->
  <text x="80" y="510" fill="#c6880e" font-size="28" font-family="Georgia, serif">64%</text>
  <text x="155" y="510" fill="#e8d5b5" opacity="0.45" font-size="13" font-family="system-ui, sans-serif">act on AI recommendations</text>

  <text x="420" y="510" fill="#c6880e" font-size="28" font-family="Georgia, serif">35%</text>
  <text x="487" y="510" fill="#e8d5b5" opacity="0.45" font-size="13" font-family="system-ui, sans-serif">more clicks for cited brands</text>

  <!-- URL -->
  <text x="80" y="580" fill="#e8d5b5" opacity="0.3" font-size="14" font-family="system-ui, sans-serif">vyzora.ai</text>
</svg>
